<svg width="18" height="18" viewBox="0 0 18 18" fill="none" xmlns="http://www.w3.org/2000/svg">
<path d="M16.6991 15.4884L12.9083 11.6975C13.7952 10.554 14.325 9.11924 14.325 7.56249C14.325 3.83347 11.2915 0.8 7.56252 0.8C3.8335 0.8 0.8 3.83347 0.8 7.56249C0.8 11.2915 3.83347 14.325 7.56249 14.325C9.11924 14.325 10.554 13.7951 11.6975 12.9083L15.4884 16.6991C15.6553 16.866 15.8747 16.95 16.0938 16.95C16.3128 16.95 16.5323 16.866 16.6992 16.6991C17.0338 16.3644 17.0339 15.8231 16.6991 15.4884C16.6991 15.4884 16.6991 15.4884 16.6991 15.4884ZM7.56249 12.6125C4.77824 12.6125 2.51248 10.3468 2.51248 7.56249C2.51248 4.77821 4.77824 2.51248 7.56249 2.51248C10.3467 2.51248 12.6125 4.77824 12.6125 7.56249C12.6125 10.3467 10.3468 12.6125 7.56249 12.6125Z" fill="#455DEE" stroke="#455DEE" stroke-width="0.4"/>
</svg>
